HIERARCHY
ROOT Hips
{
	OFFSET 0.000000 0.000000 0.000000
	CHANNELS 6 Xposition Yposition Zposition Zrotation Yrotation Xrotation 
	JOINT LowerBack
	{
		OFFSET 0.000000 0.000000 0.000000
		CHANNELS 3 Zrotation Yrotation Xrotation
		JOINT Spine
		{
			OFFSET 0.028270 2.035590 -0.193380
			CHANNELS 3 Zrotation Yrotation Xrotation
			JOINT Spine1
			{
				OFFSET 0.056720 2.048850 -0.042750
				CHANNELS 3 Zrotation Yrotation Xrotation
				JOINT Neck
				{
					OFFSET 0.000000 0.000000 0.000000
					CHANNELS 3 Zrotation Yrotation Xrotation
					JOINT Neck1
					{
						OFFSET -0.054170 1.746240 0.172020
						CHANNELS 3 Zrotation Yrotation Xrotation
						JOINT Head
						{
							OFFSET 0.104070 1.761360 -0.123970
							CHANNELS 3 Zrotation Yrotation Xrotation
							End Site
							{
								OFFSET 0.000000 0.000000 0.000000
							}
						}
					}
				}
				JOINT LeftShoulder
				{
					OFFSET 0.000000 0.000000 0.000000
					CHANNELS 3 Zrotation Yrotation Xrotation
					JOINT LeftArm
					{
						OFFSET 3.362410 1.200890 -0.311210
						CHANNELS 3 Zrotation Yrotation Xrotation
						JOINT LeftForeArm
						{
							OFFSET 4.983000 -0.000000 -0.000000
							CHANNELS 3 Zrotation Yrotation Xrotation
							JOINT LeftHand
							{
								OFFSET 3.483560 -0.000000 -0.000000
								CHANNELS 3 Zrotation Yrotation Xrotation
								JOINT LeftFingerBase
								{
									OFFSET 0.000000 0.000000 0.000000
									CHANNELS 3 Zrotation Yrotation Xrotation
									JOINT LeftHandIndex1
									{
										OFFSET 0.715260 -0.000000 -0.000000
										CHANNELS 3 Zrotation Yrotation Xrotation
										End Site
										{
											OFFSET 0.000000 0.000000 0.000000
										}
									}
								}
								JOINT LThumb
								{
									OFFSET 0.000000 0.000000 0.000000
									CHANNELS 3 Zrotation Yrotation Xrotation
									End Site
									{
										OFFSET 0.000000 0.000000 0.000000
									}
								}
							}
						}
					}
				}
				JOINT RightShoulder
				{
					OFFSET 0.000000 0.000000 0.000000
					CHANNELS 3 Zrotation Yrotation Xrotation
					JOINT RightArm
					{
						OFFSET -3.136600 1.374050 -0.404650
						CHANNELS 3 Zrotation Yrotation Xrotation
						JOINT RightForeArm
						{
							OFFSET -5.241900 -0.000000 -0.000000
							CHANNELS 3 Zrotation Yrotation Xrotation
							JOINT RightHand
							{
								OFFSET -3.444170 -0.000000 -0.000000
								CHANNELS 3 Zrotation Yrotation Xrotation
								JOINT RightFingerBase
								{
									OFFSET 0.000000 0.000000 0.000000
									CHANNELS 3 Zrotation Yrotation Xrotation
									JOINT RightHandIndex1
									{
										OFFSET -0.622530 -0.000000 -0.000000
										CHANNELS 3 Zrotation Yrotation Xrotation
										End Site
										{
											OFFSET 0.000000 0.000000 0.000000
										}
									}
								}
								JOINT RThumb
								{
									OFFSET 0.000000 0.000000 0.000000
									CHANNELS 3 Zrotation Yrotation Xrotation
									End Site
									{
										OFFSET 0.000000 0.000000 0.000000
									}
								}
							}
						}
					}
				}
			}
		}
	}
}
}
MOTION
Frames: 9
Frame Time: 0.008333
5.207069 17.198297 5.097447 -143.030985 -79.982253 167.922648 -7.392908 0.354313 4.594380 -2.932681 0.650665 -2.241934 -8.525721 0.495396 -0.778690 8.438794 5.297437 -0.054477 -4.229561 -0.355333 1.626884 0.000000 0.000000 0.000000 -3.735512 -6.109831 4.942416 -43.154084 -34.860501 2.952711 -4.064173 -11.252153 -0.047320 5.071737 10.808506 0.488459 -0.174804 0.171123 0.000000 0.000000 0.000000 0.000000 0.000000 0.000000 0.000000 18.402506 7.110146 1.425572 77.433155 28.255922 13.980227 2.651740 20.168468 0.014677 10.215476 -0.353649 -0.024537 -0.058360 -0.078924 0.000000 0.000000 0.000000 0.000000 0.000000 0.000000 0.000000 
5.167604 17.204992 5.097342 -142.815463 -80.017001 167.621496 -7.449116 0.346325 4.519357 -2.948831 0.648574 -2.245501 -8.529013 0.499718 -0.777444 8.534196 5.184861 -0.039617 -4.210784 -0.354625 1.634484 0.000000 0.000000 0.000000 -3.416847 -6.148674 4.971937 -42.769237 -35.715331 2.937676 -4.036012 -12.947988 -0.045012 4.182363 11.028430 0.414094 -0.174246 0.168575 0.000000 0.000000 0.000000 0.000000 0.000000 0.000000 0.000000 18.455193 7.133722 1.425036 77.127657 28.546971 14.477830 2.620934 21.016983 0.015262 10.137746 -0.214670 -0.011532 -0.059972 -0.083558 0.000000 0.000000 0.000000 0.000000 0.000000 0.000000 0.000000 
5.129087 17.210951 5.095317 -142.673289 -80.054588 167.395651 -7.516434 0.336850 4.429722 -2.966983 0.645606 -2.251597 -8.529230 0.503718 -0.775350 8.626994 5.046808 -0.029173 -4.193328 -0.354037 1.641270 0.000000 0.000000 0.000000 -3.078933 -6.157853 4.993527 -42.413503 -36.569539 2.954766 -3.994943 -14.733541 -0.042348 3.269574 11.240263 0.333528 -0.171955 0.165965 0.000000 0.000000 0.000000 0.000000 0.000000 0.000000 0.000000 18.508078 7.139146 1.421665 76.805654 28.880103 15.061839 2.584217 21.948437 0.015875 10.010158 -0.019629 0.006275 -0.061433 -0.089236 0.000000 0.000000 0.000000 0.000000 0.000000 0.000000 0.000000 
5.091832 17.216349 5.091362 -142.647516 -80.099163 167.280071 -7.601653 0.325524 4.333321 -2.988451 0.641645 -2.260530 -8.526473 0.506955 -0.779754 8.718108 4.920692 -0.013259 -4.176237 -0.353569 1.649663 0.000000 0.000000 0.000000 -2.733302 -6.136710 5.010085 -42.070766 -37.417506 2.997348 -3.938347 -16.623902 -0.039517 2.366220 11.474108 0.250859 -0.168011 0.163375 0.000000 0.000000 0.000000 0.000000 0.000000 0.000000 0.000000 18.554343 7.165039 1.415409 76.455214 29.198234 15.646408 2.535987 23.044266 0.016527 9.855911 0.152670 0.021682 -0.063152 -0.095454 0.000000 0.000000 0.000000 0.000000 0.000000 0.000000 0.000000 
5.055598 17.220984 5.085668 -142.672085 -80.153163 167.214954 -7.691527 0.311270 4.226512 -3.010234 0.635128 -2.272194 -8.519709 0.507959 -0.787893 8.801464 4.785979 0.004672 -4.158994 -0.353180 1.659047 0.000000 0.000000 0.000000 -2.378965 -6.090335 5.015517 -41.756359 -38.267249 3.020006 -3.861633 -18.566250 -0.036434 1.510820 11.668158 0.168487 -0.162364 0.161382 0.000000 0.000000 0.000000 0.000000 0.000000 0.000000 0.000000 18.586525 7.185665 1.405941 76.095760 29.540760 16.245991 2.480147 24.229437 0.017174 9.659471 0.338521 0.037689 -0.064763 -0.102421 0.000000 0.000000 0.000000 0.000000 0.000000 0.000000 0.000000 
5.020452 17.224930 5.078256 -142.762182 -80.222465 167.211118 -7.789452 0.293509 4.116033 -3.033046 0.625631 -2.285276 -8.509108 0.506360 -0.800599 8.877386 4.643120 0.025720 -4.141822 -0.352879 1.669569 0.000000 0.000000 0.000000 -2.021886 -6.019568 5.008160 -41.463965 -39.122404 3.012987 -3.762642 -20.549439 -0.033205 0.735070 11.825203 0.090912 -0.155229 0.160258 0.000000 0.000000 0.000000 0.000000 0.000000 0.000000 0.000000 18.605856 7.198939 1.393312 75.725688 29.906715 16.853159 2.416188 25.509823 0.017795 9.424017 0.523442 0.052797 -0.066282 -0.110020 0.000000 0.000000 0.000000 0.000000 0.000000 0.000000 0.000000 
4.986549 17.228225 5.069156 -142.912588 -80.311846 167.257406 -7.893991 0.271713 4.007008 -3.056418 0.612615 -2.298957 -8.494413 0.501614 -0.819143 8.944504 4.492839 0.051485 -4.124354 -0.352653 1.681669 0.000000 0.000000 0.000000 -1.667835 -5.928255 4.985947 -41.190777 -39.984217 2.968290 -3.640009 -22.556266 -0.029918 0.068081 11.939474 0.022233 -0.146909 0.160318 0.000000 0.000000 0.000000 0.000000 0.000000 0.000000 0.000000 18.608685 7.203037 1.377284 75.348353 30.296869 17.452148 2.344515 26.877410 0.018373 9.152967 0.702780 0.066405 -0.067699 -0.118198 0.000000 0.000000 0.000000 0.000000 0.000000 0.000000 0.000000 
4.953779 17.230875 5.058407 -143.099987 -80.424296 167.328718 -8.001197 0.246114 3.903011 -3.079278 0.596150 -2.313837 -8.474887 0.493496 -0.848406 9.000554 4.353537 0.088800 -4.105236 -0.352479 1.697228 0.000000 0.000000 0.000000 -1.322693 -5.826743 4.948200 -40.936859 -40.840474 2.878252 -3.493209 -24.577782 -0.026699 -0.464423 12.011754 -0.033850 -0.137794 0.161837 0.000000 0.000000 0.000000 0.000000 0.000000 0.000000 0.000000 18.584712 7.214906 1.357546 74.965802 30.683854 17.988421 2.263935 28.349036 0.018920 8.861821 0.851511 0.076614 -0.069214 -0.126780 0.000000 0.000000 0.000000 0.000000 0.000000 0.000000 0.000000 
4.922076 17.232868 5.046100 -143.293831 -80.562117 167.392073 -8.106647 0.216835 3.808046 -3.100862 0.576271 -2.326973 -8.451458 0.482557 -0.881033 9.045202 4.186938 0.128272 -4.086033 -0.352366 1.713715 0.000000 0.000000 0.000000 -0.992893 -5.708768 4.890030 -40.694508 -41.715008 2.751912 -3.322752 -26.582761 -0.023643 -0.840369 12.025873 -0.073834 -0.128322 0.165138 0.000000 0.000000 0.000000 0.000000 0.000000 0.000000 0.000000 18.543360 7.191419 1.333869 74.584750 31.124254 18.543015 2.178980 29.859945 0.019350 8.523199 1.023313 0.087323 -0.070301 -0.136094 0.000000 0.000000 0.000000 0.000000 0.000000 0.000000 0.000000 
